<svg width="224" height="77" viewBox="0 0 224 77" fill="white" xmlns="http://www.w3.org/2000/svg">
	<g clip-path="url(#clip0_340_325)">
		<path d="M108.075 75.2866L114.196 76.257C114.196 76.257 115.838 66.8516 116.062 64.9108L109.941 63.9404C109.493 65.508 108.075 75.2866 108.075 75.2866Z"/>
		<path d="M121.436 17.0627C120.466 16.7641 117.704 17.436 113.822 21.1683C100.386 34.8285 94.7876 57.073 94.7876 57.073C96.8777 58.2674 102.551 59.4617 104.939 59.9096C105.537 57.4462 106.134 55.1322 106.806 52.8928C111.135 54.6097 118.376 55.9533 122.929 55.8787C122.78 58.1181 122.631 60.5814 122.257 63.0447C124.646 63.4179 130.394 64.3137 132.782 63.8658C132.782 63.8658 134.574 40.5762 126.736 23.1091C123.974 17.9585 122.332 17.2867 121.436 17.0627ZM117.48 46.0254C114.121 46.3986 111.06 43.9353 111.06 40.5762C110.986 36.4707 113.076 34.0074 116.51 33.7088C120.54 33.4102 122.929 35.575 123.377 39.158C123.676 42.5917 121.511 45.5775 117.48 46.0254Z"/>
		<path d="M99.1172 69.0911C100.237 69.9122 102.775 71.7784 104.268 72.3009C105.761 70.1362 106.731 68.6433 107.925 66.2546L102.775 63.3434C102.7 63.2687 100.685 67.001 99.1172 69.0911Z"/>
		<path d="M117.182 67.8218C117.555 70.9569 118.6 74.7639 118.6 74.7639C119.943 74.8385 123.228 73.9428 124.571 73.5695C123.974 71.4794 123.153 66.6274 123.153 66.6274L117.182 67.8218Z"/>
		<path d="M209.071 23.5569C204.443 23.2583 197.351 23.5569 192.723 23.6315C192.499 23.7061 193.246 54.9828 193.395 55.7293C193.544 55.8786 205.413 55.8786 209.743 55.8786C217.058 55.8786 224 50.1308 224 39.3818C223.925 29.23 216.61 23.6315 209.071 23.5569ZM205.861 46.1C205.413 46.1 204.741 46.1 204.219 46.1C203.622 46.1 203.622 46.0253 203.622 45.5774C203.622 44.6817 203.547 42.8155 203.547 40.2029C203.547 37.1424 203.622 34.6045 203.622 33.9327C203.622 33.7834 203.622 33.7087 203.846 33.7087C204.443 33.7087 205.861 33.6341 206.682 33.7087C210.116 33.9327 212.131 36.4706 212.131 40.5762C212.131 44.0099 209.295 46.2493 205.861 46.1Z"/>
		<path d="M48.4324 23.5571C38.5045 23.5571 32.3835 31.4696 32.3835 39.3821C32.3835 49.8325 39.5496 56.1028 48.5817 56.1028C58.8082 55.8789 64.7053 48.4889 64.7053 40.2032C64.7799 29.7528 57.5393 23.5571 48.4324 23.5571ZM48.1339 46.0256C44.7001 46.0256 42.0129 43.2637 42.3861 39.83C42.834 35.7991 45.148 33.4851 48.5817 33.6343C52.6126 33.7836 54.7774 36.247 54.7774 39.83C54.7027 43.2637 52.2394 46.0256 48.1339 46.0256Z"/>
		<path d="M86.2033 24.3783C85.8301 24.5276 80.4556 41.4722 80.4556 41.4722C80.4556 41.4722 75.0811 24.4529 74.4093 24.3036C72.3938 23.8558 64.1828 24.005 64.1828 24.4529C64.1081 26.2444 74.7825 55.2817 74.8572 55.431C75.3797 55.9536 84.9344 56.1028 86.0541 55.431C86.3526 55.1324 95.8327 28.4838 96.7284 24.4529C96.8031 24.1543 88.0695 23.7811 86.2033 24.3783Z"/>
		<path d="M171.598 27.8119C171.524 26.9161 166.299 22.8853 163.387 22.8853C159.357 27.4387 153.534 34.4554 151.295 37.1426C151.369 30.3499 151.295 24.1542 151.22 24.0796C150.996 23.8557 141.292 23.4078 140.844 24.0796C140.471 24.7514 141.068 55.2816 141.218 55.5056C141.367 55.7295 150.698 55.8042 150.922 55.3563C150.996 55.2816 151.071 53.4155 151.071 50.7282C152.489 49.4592 155.475 46.8466 155.848 46.772C156.371 46.6973 162.641 56.3267 163.163 56.3267C165.328 56.6253 172.718 53.4901 172.793 52.9676C172.942 52.5197 162.865 39.4567 162.865 39.4567C162.865 39.4567 171.598 28.7076 171.598 27.8119Z"/>
		<path d="M176.003 24.2287C175.629 24.9005 176.6 55.4308 176.749 55.6547C176.898 55.8787 186.005 55.8787 186.229 55.4308C186.453 54.9829 186.602 24.2287 186.304 24.0794C186.08 23.8555 176.376 23.5569 176.003 24.2287Z"/>
		<path d="M19.6191 24.4527C19.6191 25.4977 19.5445 31.8427 19.5445 38.5608C15.8122 33.1116 9.84047 24.4527 9.3926 24.4527C8.87007 24.0795 0.808299 24.1541 0.0618388 24.4527C-0.0874533 38.0383 0.0618388 55.2069 0.211131 55.4308C0.733653 56.028 8.2729 55.9533 9.2433 55.4308C9.39259 55.2815 9.46724 47.2944 9.54189 42.0692C10.4376 43.4874 11.2587 44.6071 11.8559 45.4282C14.6178 49.0859 19.6938 55.5055 19.6938 55.5055C20.9627 55.8787 26.9344 55.9533 28.8006 55.3562C29.0245 52.221 29.1738 28.6329 29.1738 24.3781C27.233 23.9302 22.1571 24.0048 19.6191 24.4527Z"/>
	</g>
	<defs>
		<clipPath id="clip0_340_325">
			<rect width="224" height="77" fill="white"/>
		</clipPath>
	</defs>
</svg>
